<?xml version="1.0" standalone="no"?>
<!DOCTYPE svg PUBLIC "-//W3C//DTD SVG 20010904//EN"
 "http://www.w3.org/TR/2001/REC-SVG-20010904/DTD/svg10.dtd">
<svg version="1.0" xmlns="http://www.w3.org/2000/svg"
 width="700.000000pt" height="700.000000pt" viewBox="0 0 700.000000 700.000000"
 preserveAspectRatio="xMidYMid meet">
<metadata>
Created by potrace 1.11, written by Peter Selinger 2001-2013
</metadata>
<g transform="translate(0.000000,700.000000) scale(0.100000,-0.100000)"
fill="#000000" stroke="none">
<path d="M1479 6452 c-8 -1 -53 -69 -100 -150 -47 -81 -204 -349 -349 -597
-145 -247 -272 -466 -283 -485 -11 -19 -50 -87 -88 -151 -37 -63 -71 -122 -74
-131 -5 -13 61 -132 288 -518 11 -19 34 -60 52 -90 17 -30 103 -176 190 -325
87 -148 171 -294 187 -322 l29 -53 -306 -542 c-169 -299 -324 -572 -345 -608
-21 -36 -71 -123 -110 -194 -40 -71 -77 -137 -83 -147 -8 -13 -5 -27 15 -60
14 -24 35 -61 47 -81 11 -21 31 -55 42 -75 47 -83 107 -190 131 -233 14 -25
84 -148 155 -275 72 -126 140 -247 152 -267 46 -82 63 -112 102 -181 58 -101
70 -123 115 -202 21 -38 47 -83 56 -100 10 -16 28 -49 40 -72 15 -29 29 -43
42 -44 12 0 414 -1 894 -2 l873 0 180 319 c100 175 260 459 356 629 96 171
179 315 184 320 7 6 312 11 872 12 474 0 869 2 878 2 8 1 23 16 32 34 17 34
22 43 187 332 56 99 113 200 127 225 49 87 376 666 415 735 22 39 49 86 60
105 11 19 33 58 49 86 18 33 27 58 22 70 -6 16 -121 220 -143 254 -5 8 -19 33
-31 55 -12 22 -78 139 -147 260 -69 121 -139 245 -155 275 -16 30 -33 60 -37
65 -4 6 -21 35 -38 65 -16 30 -97 174 -180 320 l-150 265 -756 1 c-449 0 -760
4 -765 10 -8 7 -201 333 -261 438 -9 17 -88 153 -175 301 -87 149 -217 371
-288 495 -72 124 -132 227 -134 229 -3 5 -1751 8 -1774 3z m1599 -301 c5 -3
79 -125 164 -271 85 -146 244 -418 353 -604 109 -187 198 -344 198 -350 0 -6
-110 -198 -243 -426 -134 -228 -290 -496 -348 -595 -57 -99 -110 -186 -117
-194 -11 -12 -131 -14 -731 -14 l-718 0 -20 34 c-10 19 -24 43 -30 54 -6 11
-19 31 -27 45 -9 14 -113 192 -232 395 -118 204 -223 384 -233 402 -11 17 -54
92 -97 167 l-78 135 65 111 c36 62 66 114 66 118 0 3 6 13 14 21 7 9 25 36 38
61 14 25 89 155 168 290 79 135 190 326 248 425 57 99 108 185 113 191 10 12
1428 17 1447 5z m2383 -1478 c4 -4 123 -213 264 -463 142 -250 302 -534 357
-630 81 -143 98 -178 90 -195 -5 -11 -66 -120 -134 -240 -69 -121 -136 -240
-150 -265 -14 -25 -94 -166 -178 -315 -84 -148 -162 -286 -172 -305 -11 -19
-33 -58 -49 -86 l-29 -52 -706 0 c-506 1 -708 4 -715 12 -9 9 -105 177 -211
366 -14 25 -101 180 -195 345 -93 165 -181 320 -195 345 -14 25 -49 87 -77
137 l-53 93 38 67 c54 97 54 98 239 423 92 162 178 315 192 340 14 25 74 131
134 237 l110 192 42 3 c94 7 1390 -1 1398 -9z m-2501 -1280 c7 -8 403 -704
471 -828 18 -33 52 -93 76 -133 24 -41 43 -75 43 -76 0 -2 31 -58 70 -125 38
-68 70 -125 70 -128 0 -7 -359 -643 -381 -675 -11 -15 -19 -29 -19 -31 0 -3
-35 -67 -78 -143 -113 -199 -130 -229 -184 -325 l-48 -86 -720 0 -720 0 -13
23 c-6 13 -55 99 -107 190 -52 92 -108 190 -123 218 -16 28 -57 101 -92 161
-34 61 -73 130 -87 155 -14 25 -34 61 -45 80 -11 19 -51 89 -88 155 -97 170
-134 236 -151 270 -15 30 -15 31 89 215 58 102 220 388 360 635 l254 450 44 5
c74 8 1371 2 1379 -7z"/>
<path d="M3994 3848 c-137 -242 -248 -447 -246 -455 2 -9 14 -32 26 -52 13
-20 97 -166 186 -326 90 -159 177 -315 195 -345 18 -30 44 -77 59 -105 l26
-50 488 -1 c268 0 494 3 503 8 10 4 35 40 58 80 49 89 62 110 236 413 75 132
151 265 168 295 16 30 36 63 43 74 11 16 9 24 -10 55 -13 20 -37 63 -55 96
-18 33 -36 67 -42 75 -8 13 -90 161 -169 305 -15 28 -68 122 -117 210 l-90
160 -505 2 -505 2 -249 -441z"/>
</g>
</svg>
